<svg width="61" height="61" viewBox="0 0 61 61" fill="none" xmlns="http://www.w3.org/2000/svg">
<path d="M5.40027 10.8418V49.7307H14.8447V45.8418H47.0669V49.7307H55.4003V10.8418H47.0669V14.7307H14.8447V10.8418H5.40027ZM8.17805 12.5085H12.6225V15.2862H8.17805V12.5085ZM48.7336 12.5085H53.178V15.2862H48.7336V12.5085ZM8.17805 19.1751H12.6225V21.9529H8.17805V19.1751ZM14.8447 19.1751H47.0669V41.3974H14.8447V19.1751ZM48.7336 19.1751H53.178V21.9529H48.7336V19.1751ZM8.17805 25.8418H12.6225V28.6196H8.17805V25.8418ZM48.7336 25.8418H53.178V28.6196H48.7336V25.8418ZM8.17805 32.5085H12.6225V35.2862H8.17805V32.5085ZM48.7336 32.5085H53.178V35.2862H48.7336V32.5085ZM8.17805 39.1751H12.6225V41.9529H8.17805V39.1751ZM48.7336 39.1751H53.178V41.9529H48.7336V39.1751ZM8.17805 45.8418H12.6225V48.6196H8.17805V45.8418ZM48.7336 45.8418H53.178V48.6196H48.7336V45.8418Z" fill="#411548"/>
<path d="M37.0668 30.286L25.9557 35.8416V24.7305L37.0668 30.286Z" fill="#411548"/>
</svg>
