<svg width="37" height="38" viewBox="0 0 37 38" fill="none" xmlns="http://www.w3.org/2000/svg">
<path d="M12.015 11.4966C12.7825 11.4966 13.4047 10.8744 13.4047 10.1069C13.4047 9.33945 12.7825 8.71729 12.015 8.71729C11.2475 8.71729 10.6254 9.33945 10.6254 10.1069C10.6254 10.8744 11.2475 11.4966 12.015 11.4966Z" fill="#4C2058"/>
<path d="M24.985 11.4966C25.7525 11.4966 26.3746 10.8744 26.3746 10.1069C26.3746 9.33945 25.7525 8.71729 24.985 8.71729C24.2175 8.71729 23.5953 9.33945 23.5953 10.1069C23.5953 10.8744 24.2175 11.4966 24.985 11.4966Z" fill="#4C2058"/>
<path d="M12.015 20.2979C12.7825 20.2979 13.4047 19.6757 13.4047 18.9082C13.4047 18.1407 12.7825 17.5186 12.015 17.5186C11.2475 17.5186 10.6254 18.1407 10.6254 18.9082C10.6254 19.6757 11.2475 20.2979 12.015 20.2979Z" fill="#4C2058"/>
<path d="M24.985 20.2979C25.7525 20.2979 26.3746 19.6757 26.3746 18.9082C26.3746 18.1407 25.7525 17.5186 24.985 17.5186C24.2175 17.5186 23.5953 18.1407 23.5953 18.9082C23.5953 19.6757 24.2175 20.2979 24.985 20.2979Z" fill="#4C2058"/>
<path d="M31.0068 6.40137H5.99316C5.62461 6.40137 5.27114 6.54778 5.01053 6.80839C4.74992 7.069 4.60352 7.42246 4.60352 7.79102V27.2461C4.60352 27.6147 4.74992 27.9681 5.01053 28.2287C5.27114 28.4893 5.62461 28.6357 5.99316 28.6357H14.8202L13.9864 31.415H13.8678C13.2538 31.4158 12.6651 31.66 12.2309 32.0942C11.7967 32.5284 11.5525 33.1171 11.5518 33.7311C11.5518 33.854 11.6006 33.9718 11.6874 34.0587C11.7743 34.1455 11.8921 34.1943 12.015 34.1943H24.985C25.1079 34.1943 25.2257 34.1455 25.3126 34.0587C25.3994 33.9718 25.4482 33.854 25.4482 33.7311C25.4475 33.1171 25.2033 32.5284 24.7691 32.0942C24.3349 31.66 23.7462 31.4158 23.1322 31.415H23.0136L22.1798 28.6357H31.0068C31.3754 28.6357 31.7289 28.4893 31.9895 28.2287C32.2501 27.9681 32.3965 27.6147 32.3965 27.2461V7.79102C32.3965 7.42246 32.2501 7.069 31.9895 6.80839C31.7289 6.54778 31.3754 6.40137 31.0068 6.40137ZM5.52995 7.79102C5.52995 7.66816 5.57875 7.55034 5.66562 7.46347C5.75249 7.3766 5.87031 7.3278 5.99316 7.3278H18.0368V15.2025H15.2839C15.1731 14.4313 14.7881 13.7259 14.1993 13.2156C13.6105 12.7054 12.8575 12.4245 12.0784 12.4245C11.2993 12.4245 10.5463 12.7054 9.95758 13.2156C9.36881 13.7259 8.98373 14.4313 8.87298 15.2025H5.52995V7.79102ZM12.0784 21.2243C11.2995 21.2258 10.5472 21.5074 9.95866 22.0176C9.37017 22.5279 8.98482 23.2328 8.87298 24.0036H5.52995V16.1289H18.0368V24.0036H15.2839C15.172 23.2328 14.7867 22.5279 14.1982 22.0176C13.6097 21.5074 12.8573 21.2258 12.0784 21.2243ZM18.5 26.7829C18.4084 26.7829 18.3188 26.7557 18.2427 26.7048C18.1665 26.6539 18.1071 26.5816 18.072 26.4969C18.037 26.4123 18.0278 26.3191 18.0457 26.2293C18.0636 26.1394 18.1077 26.0569 18.1725 25.9921C18.2372 25.9273 18.3198 25.8832 18.4096 25.8653C18.4995 25.8475 18.5926 25.8566 18.6773 25.8917C18.7619 25.9268 18.8343 25.9861 18.8852 26.0623C18.936 26.1385 18.9632 26.228 18.9632 26.3197C18.9632 26.4425 18.9144 26.5603 18.8275 26.6472C18.7407 26.7341 18.6229 26.7829 18.5 26.7829ZM31.4701 24.0036H28.2539C28.1432 23.2324 27.7581 22.527 27.1693 22.0167C26.5806 21.5065 25.8276 21.2256 25.0485 21.2256C24.2694 21.2256 23.5164 21.5065 22.9276 22.0167C22.3389 22.527 21.9538 23.2324 21.843 24.0036H18.9632V16.1289H31.4701V24.0036ZM31.4701 15.2025H28.2539C28.1432 14.4313 27.7581 13.7259 27.1693 13.2156C26.5806 12.7054 25.8276 12.4245 25.0485 12.4245C24.2694 12.4245 23.5164 12.7054 22.9276 13.2156C22.3389 13.7259 21.9538 14.4313 21.843 15.2025H18.9632V7.3278H31.0068C31.1297 7.3278 31.2475 7.3766 31.3344 7.46347C31.4212 7.55034 31.4701 7.66816 31.4701 7.79102V15.2025Z" fill="#4C2058"/>
<path d="M13.6973 6.53049C13.6973 5.01833 14.9231 3.79248 16.4353 3.79248H20.5647C22.0769 3.79248 23.3027 5.01833 23.3027 6.53049H13.6973Z" fill="#4C2058"/>
<path d="M21.4468 3.98984C21.4468 3.6033 21.3707 3.22054 21.2228 2.86343C21.0749 2.50631 20.858 2.18183 20.5847 1.9085C20.3114 1.63518 19.9869 1.41837 19.6298 1.27044C19.2727 1.12252 18.8899 1.04639 18.5034 1.04639C18.1168 1.04639 17.7341 1.12252 17.377 1.27044C17.0199 1.41837 16.6954 1.63518 16.4221 1.9085C16.1487 2.18183 15.9319 2.50631 15.784 2.86343C15.6361 3.22054 15.5599 3.6033 15.5599 3.98984L18.5034 3.98984H21.4468Z" fill="#4C2058"/>
<circle cx="18.5011" cy="3.99059" r="2.05358" fill="#F5F5F5"/>
<circle cx="18.4951" cy="3.99067" r="0.570259" fill="#4C2058"/>
</svg>
