<svg width="37" height="38" viewBox="0 0 37 38" fill="none" xmlns="http://www.w3.org/2000/svg">
<path d="M17.9481 1.88067C17.3862 2.03329 17.0324 2.2414 16.6092 2.6715C15.4716 3.80918 15.4438 5.5712 16.5468 6.73663C17.2058 7.43033 17.9065 7.71475 18.8569 7.65926C19.6477 7.6107 20.1194 7.40952 20.6744 6.89618C21.9022 5.74462 21.9716 3.96179 20.8409 2.72699C20.1194 1.93617 18.9817 1.60319 17.9481 1.88067Z" fill="#4C2058"/>
<path d="M15.1535 9.33123C14.5431 9.52547 14.1823 9.74746 13.7592 10.1637C13.1487 10.7811 12.7949 11.6066 12.7949 12.4252C12.7949 12.9593 12.9753 13.2576 13.4193 13.4796L13.7245 13.6392H18.6914H23.6584L23.9636 13.4796C24.4076 13.2576 24.588 12.9593 24.588 12.4252C24.588 10.9961 23.5474 9.67115 22.1253 9.29655C21.8617 9.22024 21.05 9.19943 18.6568 9.20637C15.8611 9.20637 15.4934 9.22024 15.1535 9.33123Z" fill="#4C2058"/>
<path d="M9.25624 15.207C8.51398 15.5261 8.15325 16.414 8.45848 17.1633C8.71515 17.7668 9.16606 18.0234 10.0679 18.0651L10.6992 18.0928L10.7408 18.3842C10.7616 18.5368 10.9836 20.6179 11.2333 23.0043C11.7605 27.9851 11.7258 27.8255 12.3849 28.1585C12.6069 28.2695 12.9329 28.3666 13.1965 28.3944C13.6197 28.436 13.6266 28.4291 13.6266 28.2695C13.6266 28.0822 13.8278 27.4093 14.0081 27C14.7643 25.2519 16.7414 23.9755 18.6907 23.9755C20.2307 23.9755 21.9095 24.8149 22.8113 26.0497C23.2691 26.6671 23.7547 27.8255 23.7547 28.2765C23.7547 28.4291 23.7756 28.436 24.1779 28.3874C24.941 28.3111 25.4821 27.9573 25.6278 27.444C25.6694 27.3122 25.8983 25.2935 26.148 22.9696C26.3978 20.6387 26.6128 18.5923 26.6406 18.4189L26.6822 18.0928L27.3135 18.0651C27.8268 18.0443 28.0141 18.0026 28.2638 17.8708C29.0894 17.413 29.2836 16.31 28.6593 15.6024C28.5344 15.4637 28.3124 15.2972 28.1598 15.2278C27.8962 15.1029 27.4314 15.096 18.6907 15.1029C10.6298 15.1029 9.47129 15.1168 9.25624 15.207Z" fill="#4C2058"/>
<path d="M6.04413 27.0902C5.51692 27.3053 5.12844 27.666 4.87177 28.1863C4.68447 28.5748 4.64978 28.7205 4.64978 29.1367C4.65672 31.1068 7.02226 32.1058 8.40274 30.7253C8.86059 30.2674 9.0132 29.872 9.0132 29.1436C9.0132 28.6233 8.98546 28.4638 8.84671 28.2071C8.62473 27.777 8.25013 27.3955 7.8339 27.1804C7.36218 26.9376 6.52973 26.896 6.04413 27.0902Z" fill="#4C2058"/>
<path d="M18.0236 27.0277C17.6767 27.1387 17.1564 27.5202 16.9067 27.8463C15.8384 29.2614 16.8998 31.3564 18.6895 31.3564C19.5289 31.3564 20.3683 30.8154 20.7082 30.0661C20.951 29.5112 20.9441 28.7273 20.6805 28.1931C20.4654 27.763 20.0978 27.3884 19.6468 27.1595C19.3139 26.9861 18.3982 26.9098 18.0236 27.0277Z" fill="#4C2058"/>
<path d="M29.7221 27.083C29.2782 27.2495 28.6122 27.9293 28.4526 28.3802C27.9809 29.733 28.8619 31.162 30.284 31.3632C30.9084 31.4534 31.7616 31.1204 32.1848 30.6209C32.9687 29.6983 32.9062 28.3872 32.046 27.5547C31.4772 26.9998 30.4921 26.7986 29.7221 27.083Z" fill="#4C2058"/>
<path d="M4.88618 32.9797C3.49182 33.3473 2.47207 34.6238 2.43739 36.0459C2.42351 36.5939 2.60388 36.9477 3.0201 37.1627C3.28371 37.2945 3.41552 37.2945 6.92568 37.2807C10.4913 37.2598 10.5676 37.2598 10.7619 37.1142C11.1295 36.8436 11.2683 36.5523 11.2683 36.0805C11.2683 34.6168 10.1167 33.2363 8.64607 32.9311C8.04255 32.8062 5.42727 32.8409 4.88618 32.9797Z" fill="#4C2058"/>
<path d="M16.7691 32.9593C15.5412 33.2922 14.5701 34.312 14.3203 35.5399C14.1608 36.2891 14.2995 36.7677 14.7643 37.1146C14.9516 37.2603 15.0279 37.2603 18.6907 37.2603C22.3535 37.2603 22.4298 37.2603 22.6171 37.1146C23.0819 36.7677 23.2206 36.2891 23.061 35.5399C22.8044 34.2981 21.8332 33.2853 20.5845 32.9593C20.0434 32.8205 17.2963 32.8205 16.7691 32.9593Z" fill="#4C2058"/>
<path d="M28.6467 32.9519C27.1968 33.3126 26.1146 34.6446 26.1146 36.0805C26.1146 36.5523 26.2534 36.8436 26.621 37.1142C26.8153 37.2598 26.8916 37.2598 30.4572 37.2807C33.9674 37.2945 34.0992 37.2945 34.3628 37.1627C34.779 36.9477 34.9594 36.5939 34.9455 36.0459C34.9108 34.5683 33.7454 33.1947 32.2956 32.9242C31.7683 32.8271 29.0768 32.8479 28.6467 32.9519Z" fill="#4C2058"/>
</svg>
