<svg width="60" height="61" viewBox="0 0 60 61" fill="none" xmlns="http://www.w3.org/2000/svg">
<path d="M12.0457 29.9921H4.60147C3.97754 29.9921 3.47266 30.4976 3.47266 31.1209V50.0612C3.47266 50.6845 3.97754 51.19 4.60147 51.19H12.0457C12.6697 51.19 13.1745 50.6845 13.1745 50.0612V47.6559L28.5822 52.1529C29.28 52.3238 29.9844 52.4075 30.6833 52.4075C32.5959 52.4075 34.4655 51.7792 36.0199 50.5809L54.9706 36.0309C55.8646 35.3474 56.4268 34.3095 56.515 33.1851C56.6043 32.059 56.2063 30.9429 55.4303 30.1272C54.0545 28.6709 51.6679 28.5304 49.989 29.8135L42.9008 35.2548C42.5308 33.4379 40.9207 32.0662 38.9963 32.0662H28.418C22.1303 27.9308 16.1221 30.5264 13.1745 32.3723V31.1209C13.1745 30.4976 12.6697 29.9921 12.0457 29.9921ZM10.9169 48.9323H5.73029V32.2498H10.9169V34.5818V46.1505V48.9323ZM27.4314 34.1238C27.6199 34.2539 27.8437 34.3239 28.073 34.3239H38.9963C39.9487 34.3239 40.7237 35.0983 40.7237 36.0507C40.7237 37.0031 39.9487 37.7781 38.9963 37.7781H28.073C27.449 37.7781 26.9441 38.2835 26.9441 38.9069C26.9441 39.5303 27.449 40.0357 28.073 40.0357H38.9963C39.9896 40.0357 40.8881 39.6572 41.5868 39.0537C41.656 39.0204 41.7296 39.0014 41.7929 38.9527L51.3625 31.6054C52.132 31.0184 53.1991 31.0504 53.791 31.6804C54.135 32.042 54.3036 32.5132 54.2651 33.0082C54.2265 33.5026 53.9895 33.9391 53.597 34.2395L34.643 48.7918C33.0655 50.0077 31.0548 50.4321 29.1676 49.973L13.1745 45.3039V35.1115C14.7219 33.8963 20.9489 29.6455 27.4314 34.1238Z" fill="#008809" stroke="#008809"/>
<path d="M36.2115 18.9865C37.3204 17.9946 38.102 16.6895 38.4529 15.2437C38.8038 13.7979 38.7075 12.2797 38.1766 10.8898C37.6458 9.50002 36.7054 8.30415 35.48 7.46046C34.2546 6.61677 32.8019 6.16504 31.3142 6.16504C29.8264 6.16504 28.3737 6.61677 27.1483 7.46046C25.9229 8.30415 24.9826 9.50002 24.4517 10.8898C23.9208 12.2797 23.8245 13.7979 24.1754 15.2437C24.5263 16.6895 25.3079 17.9946 26.4168 18.9865C24.3653 19.7048 22.5874 21.0423 21.3285 22.8144C20.3458 24.5733 20.6137 23.8336 19.8852 26.3716C19.7844 26.7032 20.0176 27.0247 20.2533 27.2604C20.4891 27.4961 20.8088 27.6286 21.1422 27.6286C21.4755 27.6286 21.7953 27.4961 22.031 27.2604C22.2667 27.0247 22.2716 26.7032 22.3991 26.3716C23.4067 24.0122 22.8838 24.8029 24.2435 23.2369C25.7401 21.7403 27.7693 20.8986 29.8858 20.8965H32.7752C34.8917 20.8986 36.9208 21.7403 38.4174 23.2369C39.914 24.7335 40.7557 26.7627 40.7579 28.8791C40.7579 29.2125 40.8903 29.5322 41.1261 29.768C41.3618 30.0037 41.6815 30.1361 42.0149 30.1361C42.3482 30.1361 42.668 30.0037 42.9037 29.768C43.1394 29.5322 43.2719 29.2125 43.2719 28.8791C43.2666 26.7015 42.5841 24.5795 41.3191 22.807C40.0541 21.0345 38.2691 19.6994 36.2115 18.9865ZM31.3142 8.74285C32.265 8.74285 33.1945 9.02481 33.9851 9.55307C34.7757 10.0813 35.3919 10.8322 35.7558 11.7106C36.1196 12.5891 36.2148 13.5558 36.0293 14.4883C35.8438 15.4209 35.386 16.2775 34.7136 16.9499C34.0413 17.6222 33.1846 18.0801 32.2521 18.2656C31.3195 18.4511 30.3528 18.3559 29.4744 17.992C28.5959 17.6282 27.8451 17.012 27.3168 16.2214C26.7885 15.4308 26.5066 14.5013 26.5066 13.5504C26.5066 12.9191 26.6309 12.2939 26.8725 11.7106C27.1141 11.1274 27.4683 10.5974 27.9147 10.151C28.8163 9.24936 30.0391 8.74285 31.3142 8.74285Z" fill="#008809" stroke="#008809"/>
</svg>
