<svg width="61" height="61" viewBox="0 0 61 61" fill="none" xmlns="http://www.w3.org/2000/svg">
<path d="M41.7288 37.6663C39.6308 37.6586 37.5996 38.4045 36.0051 39.7681L27.5071 34.1634C28.3575 32.1091 28.3851 29.8063 27.5841 27.7321L36.4114 21.1396C38.0989 22.4427 40.2019 23.0894 42.33 22.9596C44.4581 22.8297 46.4668 21.9323 47.9834 20.4337C49.5 18.9352 50.4214 16.9373 50.5767 14.8109C50.732 12.6845 50.1105 10.574 48.8277 8.871C47.5449 7.16804 45.6878 5.98831 43.6011 5.55075C41.5144 5.11319 39.3398 5.44752 37.481 6.49168C35.6221 7.53585 34.2051 9.21894 33.4931 11.2286C32.7811 13.2382 32.8223 15.438 33.6091 17.4195L24.8238 24.04C23.5402 23.0213 21.9968 22.3826 20.3686 22.1963C18.7405 22.01 17.0927 22.2835 15.6121 22.9858C14.1315 23.6882 12.8772 24.7913 11.9915 26.1701C11.1058 27.5489 10.6241 29.1483 10.601 30.7869C10.5778 32.4255 11.0142 34.0378 11.8606 35.441C12.707 36.8443 13.9296 37.9824 15.3899 38.7262C16.8501 39.4701 18.4895 39.7901 20.1222 39.6498C21.755 39.5095 23.3158 38.9146 24.6277 37.9326L33.4059 43.6843C32.8238 45.445 32.8148 47.345 33.38 49.1112C33.9453 50.8774 35.0558 52.419 36.552 53.5145C38.0482 54.6101 39.8532 55.2033 41.7076 55.2088C43.5621 55.2144 45.3706 54.632 46.8733 53.5455C48.3761 52.4589 49.4958 50.9239 50.0716 49.1611C50.6474 47.3984 50.6497 45.4984 50.0782 43.7342C49.5066 41.9701 48.3906 40.4324 46.8905 39.3422C45.3904 38.252 43.5833 37.6653 41.7288 37.6663ZM41.7288 10.1475C42.5411 10.1461 43.3355 10.3857 44.0116 10.836C44.6876 11.2863 45.2149 11.9269 45.5267 12.677C45.8385 13.427 45.9208 14.2527 45.7632 15.0495C45.6056 15.8464 45.2152 16.5785 44.6413 17.1534C44.0674 17.7282 43.3359 18.1199 42.5394 18.2789C41.7428 18.4379 40.917 18.357 40.1664 18.0465C39.4158 17.736 38.7742 17.2098 38.3228 16.5345C37.8714 15.8592 37.6304 15.0652 37.6304 14.2529C37.6323 13.1659 38.0645 12.1238 38.8325 11.3545C39.6005 10.5852 40.6418 10.1512 41.7288 10.1475ZM19.3943 35.0251C18.5818 35.0265 17.7871 34.7868 17.1109 34.3362C16.4347 33.8856 15.9074 33.2445 15.5958 32.4941C15.2842 31.7436 15.2023 30.9176 15.3605 30.1205C15.5187 29.3235 15.9098 28.5914 16.4844 28.0168C17.0589 27.4422 17.7911 27.0511 18.5881 26.8929C19.3851 26.7347 20.2112 26.8166 20.9616 27.1282C21.7121 27.4398 22.3532 27.9671 22.8038 28.6433C23.2543 29.3195 23.4941 30.1142 23.4927 30.9267C23.4909 32.0131 23.0585 33.0545 22.2903 33.8227C21.5221 34.5909 20.4807 35.0233 19.3943 35.0251ZM41.7288 50.536C40.9166 50.536 40.1226 50.2951 39.4473 49.8436C38.772 49.3922 38.2458 48.7506 37.9353 48.0001C37.6248 47.2495 37.5439 46.4237 37.7028 45.6271C37.8618 44.8305 38.2535 44.099 38.8284 43.5252C39.4032 42.9513 40.1354 42.5608 40.9322 42.4032C41.7291 42.2456 42.5547 42.3279 43.3048 42.6397C44.0548 42.9515 44.6955 43.4788 45.1458 44.1549C45.596 44.8309 45.8356 45.6253 45.8342 46.4376C45.8324 47.5252 45.399 48.5676 44.6293 49.336C43.8596 50.1044 42.8165 50.536 41.7288 50.536Z" fill="#CF2F2F"/>
</svg>
