<svg width="61" height="61" viewBox="0 0 61 61" fill="none" xmlns="http://www.w3.org/2000/svg">
<path d="M3.69873 43.5368C3.69873 47.1807 6.68013 50.1621 10.3241 50.1621C12.7754 50.1621 14.8955 48.837 16.0881 46.8494H16.9494C24.8998 46.8494 29.2062 42.6092 32.6514 39.2303C35.8316 36.1164 38.3492 33.5988 43.4507 33.5988H44.312C45.4383 35.5864 47.6246 36.9115 50.076 36.9115C53.7199 36.9115 56.7013 33.9301 56.7013 30.2861C56.7013 26.6422 53.7199 23.6608 50.076 23.6608C47.6246 23.6608 45.5045 24.9859 44.312 26.9735H43.4507C38.2167 26.9735 35.6328 24.4558 32.3864 21.2757C28.8087 17.698 24.7673 13.7228 16.9494 13.7228H16.0881C14.9618 11.7352 12.7754 10.4102 10.3241 10.4102C6.68013 10.4102 3.69873 13.3916 3.69873 17.0355C3.69873 20.6794 6.68013 23.6608 10.3241 23.6608C12.7754 23.6608 14.8955 22.3357 16.0881 20.3481H16.9494C22.0509 20.3481 24.5685 22.8658 27.7487 25.9797C29.2062 27.4372 30.7963 28.9611 32.7839 30.3524C30.9951 31.6112 29.4712 33.135 28.0137 34.5263C24.7673 37.7065 22.1834 40.2241 16.9494 40.2241H16.0881C14.9618 38.2365 12.7754 36.9115 10.3241 36.9115C6.68013 36.9115 3.69873 39.8929 3.69873 43.5368ZM14.2993 17.0355C14.2993 19.2218 12.5104 21.0107 10.3241 21.0107C8.1377 21.0107 6.34886 19.2218 6.34886 17.0355C6.34886 14.8491 8.1377 13.0603 10.3241 13.0603C12.5104 13.0603 14.2993 14.8491 14.2993 17.0355ZM46.1008 30.2861C46.1008 28.0998 47.8897 26.3109 50.076 26.3109C52.2624 26.3109 54.0512 28.0998 54.0512 30.2861C54.0512 32.4725 52.2624 34.2613 50.076 34.2613C47.8897 34.2613 46.1008 32.4725 46.1008 30.2861ZM6.34886 43.5368C6.34886 41.3504 8.1377 39.5616 10.3241 39.5616C12.5104 39.5616 14.2993 41.3504 14.2993 43.5368C14.2993 45.7231 12.5104 47.512 10.3241 47.512C8.1377 47.512 6.34886 45.7231 6.34886 43.5368Z" fill="#0077FF"/>
</svg>
