<svg width="81" height="81" viewBox="0 0 81 81" fill="none" xmlns="http://www.w3.org/2000/svg">
<path d="M24.6818 45.7639H21.3105C20.1228 45.7639 19.092 44.9186 18.8598 43.7547L18.2782 40.8472C16.7502 40.4379 15.2856 39.829 13.9068 39.0318L11.4352 40.6791C10.4469 41.3388 9.12046 41.2063 8.28076 40.366L5.89764 37.9829C5.05722 37.1439 4.92539 35.8167 5.58512 34.8285L7.23239 32.3575C6.43525 30.9788 5.82636 29.5142 5.41701 27.9862L2.50956 27.4046C1.34564 27.1724 0.500366 26.1416 0.500366 24.9539V21.5826C0.500366 20.3949 1.34564 19.3641 2.50956 19.1319L5.41701 18.5503C5.82636 17.0223 6.43525 15.5577 7.23239 14.1789L5.58512 11.7073C4.92539 10.7197 5.05722 9.39256 5.89821 8.55286L8.28133 6.16973C9.12032 5.32932 10.4468 5.1982 11.4357 5.85722L13.9067 7.50448C15.2854 6.70735 16.75 6.09846 18.278 5.68911L18.8596 2.78166C19.0919 1.61773 20.1227 0.772461 21.3103 0.772461H24.6817C25.8693 0.772461 26.9001 1.61773 27.1324 2.78166L27.714 5.68911C29.242 6.09846 30.7065 6.70735 32.0853 7.50448L34.557 5.85722C35.5452 5.19677 36.871 5.32932 37.7114 6.1703L40.0951 8.55343C40.9348 9.39313 41.0659 10.7196 40.4069 11.7078L38.7596 14.1788C39.5567 15.5563 40.1649 17.0214 40.575 18.5501L43.4824 19.1317C44.6464 19.364 45.4916 20.3948 45.4916 21.5824V24.9538C45.4916 26.1414 44.6464 27.1722 43.4824 27.4045L40.575 27.9861C40.1649 29.5148 39.5567 30.9801 38.7596 32.3574L40.4069 34.8291C41.0659 35.8166 40.9348 37.1431 40.0951 37.9828L37.7107 40.3665C36.8717 41.2069 35.5452 41.338 34.5562 40.679L32.0853 39.0317C30.7065 39.8288 29.242 40.4377 27.714 40.8471L27.1324 43.7545C26.9001 44.9185 25.8695 45.7639 24.6818 45.7639Z" fill="#F6B452"/>
<path d="M22.9981 33.809C17.1858 33.809 12.4569 29.0802 12.4569 23.2678C12.4569 17.4554 17.1858 12.7266 22.9981 12.7266C28.8105 12.7266 33.5394 17.4554 33.5394 23.2678C33.5394 29.0802 28.8105 33.809 22.9981 33.809Z" fill="#08050E"/>
<path d="M51.8825 80.6933H47.2463C45.6131 80.6933 44.1955 79.5309 43.8762 77.9303L43.0764 73.932C40.9751 73.3691 38.961 72.5318 37.065 71.4356L33.666 73.7008C32.307 74.6081 30.4829 74.4258 29.3282 73.2703L26.051 69.9931C24.8953 68.8393 24.714 67.0142 25.6212 65.6552L27.8865 62.2572C26.7903 60.3612 25.953 58.3472 25.39 56.2459L21.3918 55.4461C19.7912 55.1267 18.6288 53.7092 18.6288 52.076V47.4398C18.6288 45.8066 19.7912 44.389 21.3918 44.0696L25.39 43.2698C25.953 41.1686 26.7903 39.1545 27.8865 37.2585L25.6212 33.8595C24.714 32.5015 24.8953 30.6764 26.0518 29.5217L29.329 26.2445C30.4827 25.0887 32.3068 24.9084 33.6668 25.8147L37.0648 28.08C38.9608 26.9838 40.9749 26.1464 43.0762 25.5835L43.876 21.5853C44.1953 19.9847 45.6129 18.8223 47.2461 18.8223H51.8823C53.5155 18.8223 54.933 19.9847 55.2524 21.5853L56.0522 25.5835C58.1535 26.1464 60.1675 26.9838 62.0635 28.08L65.4625 25.8147C66.8215 24.9065 68.6447 25.0887 69.8004 26.2452L73.0784 29.5224C74.2331 30.6772 74.4134 32.5013 73.5072 33.8603L71.2419 37.2583C72.3381 39.1525 73.1744 41.1674 73.7383 43.2696L77.7366 44.0694C79.3372 44.3888 80.4996 45.8064 80.4996 47.4396V52.0758C80.4996 53.709 79.3372 55.1265 77.7366 55.4459L73.7383 56.2457C73.1744 58.3479 72.3381 60.363 71.2419 62.257L73.5072 65.656C74.4134 67.014 74.2331 68.8382 73.0784 69.9929L69.7994 73.2709C68.6457 74.4266 66.8215 74.6069 65.4615 73.7006L62.0635 71.4354C60.1675 72.5316 58.1535 73.3689 56.0522 73.9318L55.2524 77.9301C54.933 79.5307 53.5157 80.6933 51.8825 80.6933Z" fill="#090611"/>
<path d="M51.8825 80.6933H47.2463C45.6131 80.6933 44.1955 79.5309 43.8762 77.9303L43.0764 73.932C40.9751 73.3691 38.961 72.5318 37.065 71.4356L33.666 73.7008C32.307 74.6081 30.4829 74.4258 29.3282 73.2703L26.051 69.9931C24.8953 68.8393 24.714 67.0142 25.6212 65.6552L27.8865 62.2572C26.7903 60.3612 25.953 58.3472 25.39 56.2459L21.3918 55.4461C19.7912 55.1267 18.6288 53.7092 18.6288 52.076V47.4398C18.6288 45.8066 19.7912 44.389 21.3918 44.0696L25.39 43.2698C25.953 41.1686 26.7903 39.1545 27.8865 37.2585L25.6212 33.8595C24.714 32.5015 24.8953 30.6764 26.0518 29.5217L29.329 26.2445C30.4827 25.0887 32.3068 24.9084 33.6668 25.8147L37.0648 28.08C38.9608 26.9838 40.9749 26.1464 43.0762 25.5835L43.876 21.5853C44.1953 19.9847 45.6129 18.8223 47.2461 18.8223H51.8823C53.5155 18.8223 54.933 19.9847 55.2524 21.5853L56.0522 25.5835C58.1535 26.1464 60.1675 26.9838 62.0635 28.08L65.4625 25.8147C66.8215 24.9065 68.6447 25.0887 69.8004 26.2452L73.0784 29.5224C74.2331 30.6772 74.4134 32.5013 73.5072 33.8603L71.2419 37.2583C72.3381 39.1525 73.1744 41.1674 73.7383 43.2696L77.7366 44.0694C79.3372 44.3888 80.4996 45.8064 80.4996 47.4396V52.0758C80.4996 53.709 79.3372 55.1265 77.7366 55.4459L73.7383 56.2457C73.1744 58.3479 72.3381 60.363 71.2419 62.257L73.5072 65.656C74.4134 67.014 74.2331 68.8382 73.0784 69.9929L69.7994 73.2709C68.6457 74.4266 66.8215 74.6069 65.4615 73.7006L62.0635 71.4354C60.1675 72.5316 58.1535 73.3689 56.0522 73.9318L55.2524 77.9301C54.933 79.5307 53.5157 80.6933 51.8825 80.6933ZM37.0255 68.2177C37.298 68.2177 37.5702 68.2935 37.811 68.4449C39.9345 69.7829 42.24 70.7401 44.6636 71.2894C45.2305 71.4179 45.6677 71.8677 45.7818 72.4375L46.7649 77.3526C46.8108 77.5808 47.0133 77.7468 47.2463 77.7468H51.8825C52.1156 77.7468 52.3179 77.5808 52.3639 77.3526L53.347 72.4375C53.4611 71.8679 53.8985 71.4181 54.4652 71.2894C56.8888 70.7399 59.1943 69.7827 61.3177 68.4449C61.8088 68.1342 62.4369 68.1428 62.9203 68.4652L67.0971 71.2494C67.289 71.3788 67.5498 71.3529 67.7156 71.1889L70.9956 67.9099C71.1606 67.7449 71.1855 67.485 71.0561 67.2914L68.2719 63.1136C67.9496 62.6302 67.9419 62.0021 68.2516 61.511C69.5886 59.3895 70.5458 57.084 71.0961 54.6585C71.2246 54.0916 71.6744 53.6544 72.2442 53.5403L77.1593 52.5572C77.3876 52.5112 77.5535 52.3087 77.5535 52.0758V47.4396C77.5535 47.2064 77.3876 47.0041 77.1593 46.9581L72.2442 45.9751C71.6746 45.861 71.2248 45.4235 71.0961 44.8569C70.5456 42.4313 69.5885 40.1258 68.2516 38.0043C67.9419 37.5133 67.9496 36.8851 68.2719 36.4017L71.0561 32.2249C71.1855 32.0303 71.1606 31.7704 70.9956 31.6054L67.7166 28.3274C67.5506 28.1634 67.2927 28.1348 67.0981 28.2662L62.9203 31.0504C62.4369 31.3727 61.8108 31.3804 61.3177 31.0706C59.1943 29.7326 56.8888 28.7755 54.4652 28.2261C53.8983 28.0976 53.4611 27.6478 53.347 27.078L52.3639 22.1629C52.3179 21.9347 52.1154 21.7687 51.8825 21.7687H47.2463C47.0131 21.7687 46.8108 21.9347 46.7649 22.1629L45.7818 27.078C45.6677 27.6477 45.2303 28.0974 44.6636 28.2261C42.24 28.7757 39.9345 29.7328 37.811 31.0706C37.321 31.3804 36.6928 31.3727 36.2085 31.0504L32.0317 28.2662C31.837 28.1357 31.5762 28.1617 31.4131 28.3267L28.1342 31.6056C27.9692 31.7706 27.9432 32.0305 28.0729 32.2242L30.8571 36.4019C31.1794 36.8853 31.1871 37.5125 30.8773 38.0045C29.5393 40.128 28.5822 42.4335 28.0328 44.8571C27.9044 45.4239 27.4546 45.8612 26.8848 45.9753L21.9696 46.9583C21.7414 47.0043 21.5754 47.2068 21.5754 47.4398V52.076C21.5754 52.3091 21.7414 52.5114 21.9696 52.5574L26.8848 53.5405C27.4544 53.6546 27.9042 54.092 28.0328 54.6586C28.5824 57.0822 29.5395 59.3878 30.8773 61.5112C31.1871 62.0033 31.1794 62.6304 30.8571 63.1138L28.0729 67.2906C27.9434 67.4852 27.9694 67.7451 28.1334 67.9091L31.4124 71.1881C31.5783 71.3531 31.8362 71.3808 32.0309 71.2494L36.2086 68.4652C36.4561 68.3002 36.7407 68.2177 37.0255 68.2177Z" fill="white"/>
<path d="M49.5686 66.9442C40.0921 66.9442 32.3822 59.2342 32.3822 49.7577C32.3822 40.2812 40.0921 32.5713 49.5686 32.5713C59.0452 32.5713 66.7551 40.2812 66.7551 49.7577C66.7551 59.2342 59.0452 66.9442 49.5686 66.9442ZM49.5686 35.5175C41.7167 35.5175 35.3284 41.9058 35.3284 49.7577C35.3284 57.6097 41.7167 63.9979 49.5686 63.9979C57.4206 63.9979 63.8088 57.6097 63.8088 49.7577C63.8088 41.9058 57.4206 35.5175 49.5686 35.5175Z" fill="white"/>
</svg>
