<svg width="61" height="61" viewBox="0 0 61 61" fill="none" xmlns="http://www.w3.org/2000/svg">
<path d="M50.9151 36.991H45.168V26.8877C45.168 21.9816 41.1987 17.9951 36.3079 17.9472C37.6259 16.5085 38.4497 14.61 38.4497 12.5124C38.4478 8.05263 34.8195 4.42432 30.3616 4.42432C25.9038 4.42432 22.2736 8.05263 22.2736 12.5124C22.2736 14.612 23.0973 16.5085 24.4153 17.9472C19.5227 17.9951 15.5553 21.9816 15.5553 26.8877V36.991H10.6856C9.62813 36.991 8.7699 37.8493 8.7699 38.9067V54.2323C8.7699 55.2897 9.62813 56.1479 10.6856 56.1479C11.743 56.1479 12.6013 55.2897 12.6013 54.2323V40.8224H48.9994V52.3166C48.9994 53.374 49.8576 54.2323 50.9151 54.2323C51.9725 54.2323 52.8308 53.374 52.8308 52.3166V38.9067C52.8308 37.8493 51.9725 36.991 50.9151 36.991ZM30.3616 8.2557C32.7084 8.2557 34.6183 10.1656 34.6183 12.5124C34.6183 14.8591 32.7084 16.7671 30.3616 16.7671C28.0149 16.7671 26.105 14.8591 26.105 12.5124C26.105 10.1656 28.013 8.2557 30.3616 8.2557ZM19.3847 26.8877C19.3847 24.1808 21.4977 21.9586 24.1606 21.7824L29.649 23.9778C30.1069 24.1598 30.6145 24.1598 31.0724 23.9778L36.5608 21.7824C39.2236 21.9567 41.3366 24.1808 41.3366 26.8877V36.991H40.4803V28.0601C40.4803 27.0026 39.6221 26.1444 38.5646 26.1444C37.5072 26.1444 36.6489 27.0026 36.6489 28.0601V36.991H24.0724V28.0601C24.0724 27.0026 23.2142 26.1444 22.1567 26.1444C21.0993 26.1444 20.241 27.0026 20.241 28.0601V36.991H19.3847V26.8877Z" fill="#D3A80F"/>
</svg>
