<svg width="32" height="33" viewBox="0 0 32 33" fill="none" xmlns="http://www.w3.org/2000/svg">
<path d="M31.8775 29.0488H0.0974338C0.0941041 31.0357 1.69301 32.6495 3.67992 32.6542C9.7475 32.6683 21.9308 32.6981 28.2202 32.7106C30.2457 32.7146 31.8775 31.0743 31.8775 29.0488Z" fill="#4C2058"/>
<path d="M15.5392 20.6352H15.5342C14.9211 20.6352 14.3483 20.4644 13.861 20.168C11.9115 20.8563 10.5096 22.7204 10.5096 24.9061H20.5536C20.5536 22.7204 19.1518 20.8563 17.1922 20.168C16.7048 20.4644 16.1421 20.6302 15.5392 20.6352Z" fill="#4C2058"/>
<path d="M26.1396 6.76775C4.51626 6.76775 30.2328 6.20926 4.37016 6.76775C2.79748 6.76775 1.51624 8.05402 1.51624 9.63171V27.6697H30.4625C30.4625 25.126 30.5131 14.805 30.5131 9.34951C30.5131 6.67481 28.4275 6.76775 26.1396 6.76775Z" fill="#4C2058"/>
<path d="M16.3563 21.085H16.3513C15.7383 21.085 15.1655 20.9141 14.6781 20.6177C12.7286 21.306 11.3268 23.1701 11.3268 25.3558H21.3708C21.3708 23.1701 19.9689 21.306 18.0094 20.6177C17.522 20.9141 16.9592 21.0799 16.3563 21.085Z" fill="white"/>
<path d="M13.483 17.848C13.483 19.4247 14.7658 20.7069 16.3525 20.7069C17.9282 20.6974 19.2105 19.4151 19.2105 17.848C19.2105 16.2668 17.9237 14.98 16.3419 14.98C14.7658 14.98 13.483 16.2668 13.483 17.848Z" fill="white"/>
<path d="M14.408 9.09967C14.3226 9.52927 14.212 9.93475 14.0713 10.3387C13.8759 10.9025 13.6166 11.4572 13.3016 11.9873C13.2679 12.044 13.2664 12.1139 13.2971 12.1722C13.3282 12.2305 13.3875 12.2681 13.4533 12.2717C13.5995 12.2797 13.7463 12.2837 13.8925 12.2837C14.4286 12.2837 14.9627 12.2299 15.4862 12.1229C16.053 12.0048 16.5957 11.8295 17.1006 11.6009C17.2729 11.6838 17.4393 11.7536 17.5925 11.8079C18.3703 12.1084 19.1993 12.2606 20.057 12.2606C22.8753 12.2606 25.3584 10.5739 26.095 8.15757C26.1412 8.00232 26.1819 7.84103 26.2156 7.67622C26.2814 7.37526 26.3146 7.04515 26.3146 6.69394C26.3146 6.39196 26.2889 6.10255 26.2397 5.83727C25.7674 3.11146 23.1677 1.13281 20.057 1.13281C16.9931 1.13281 14.3331 3.15517 13.8694 5.83424C13.8191 6.10205 13.7935 6.39147 13.7935 6.69394C13.7935 7.1989 13.8673 7.6918 14.0131 8.15808C14.1095 8.47966 14.2422 8.7957 14.408 9.09967Z" fill="white"/>
<path d="M16.9958 7.84424L22.9548 7.84424" stroke="#4C2058" stroke-width="0.7" stroke-linecap="round"/>
<path d="M16.9958 5.94922L21.9685 5.94922" stroke="#4C2058" stroke-width="0.7" stroke-linecap="round"/>
<path d="M14.7601 9.28335L14.7908 9.14158L14.7234 9.01313C14.5751 8.73016 14.4582 8.43777 14.3748 8.1423L14.3749 8.14229L14.3736 8.13787C14.2474 7.70941 14.1867 7.25577 14.1944 6.7899C14.1991 6.50968 14.2272 6.24554 14.2764 6.0052L14.2765 6.00521L14.2775 5.9997C14.7428 3.55295 17.2378 1.67839 20.1425 1.72641C23.0934 1.77519 25.466 3.68608 25.858 6.19424L25.8579 6.19425L25.8587 6.19898C25.8992 6.43865 25.9185 6.70382 25.9139 6.98366C25.9085 7.31015 25.8727 7.6107 25.8094 7.87889L25.8093 7.87888L25.8081 7.88424C25.7744 8.03635 25.7343 8.18517 25.6891 8.32825C24.9744 10.539 22.6409 12.0969 19.9718 12.0528C19.162 12.0394 18.3845 11.8829 17.6588 11.5886L17.6588 11.5885L17.6482 11.5845C17.5112 11.5335 17.3593 11.4669 17.1994 11.3867L17.0325 11.303L16.8611 11.3772C16.3809 11.5851 15.8639 11.743 15.3231 11.8465C14.8247 11.9398 14.3168 11.9824 13.8077 11.974C13.7839 11.9736 13.7602 11.9731 13.7364 11.9725C13.9941 11.5186 14.2129 11.0482 14.3877 10.5697C14.5414 10.1507 14.6637 9.72936 14.7601 9.28335Z" stroke="#4C2058" stroke-width="0.8"/>
</svg>
