<svg width="97" height="83" viewBox="0 0 97 83" fill="none" xmlns="http://www.w3.org/2000/svg">
<path d="M19.3778 54.6091H24.6077C25.8442 54.6091 26.9303 55.1271 27.749 55.9459C28.5009 55.0436 29.4534 54.4421 34.3157 53.0385C37.7578 52.0359 40.5983 50.0476 42.1857 48.9448C43.5391 47.9923 43.8733 47.7584 44.9427 48.0091C44.8591 47.6749 44.809 47.3407 44.7756 47.0065H44.5751C43.8566 47.0065 43.2551 46.4217 43.2551 45.6865V41.3254C35.335 36.179 34.0818 25.0006 40.8155 18.2502C46.647 12.4187 56.0877 12.4187 61.9191 18.2502C68.3688 24.6832 67.5668 35.2767 60.3318 40.7239V45.7032C60.3318 46.4217 59.7469 47.0232 59.0117 47.0232H58.8112C58.7611 47.6415 58.6107 48.243 58.4102 48.7944C61.5181 48.3599 64.2918 50.8663 64.1414 54.0243C64.1414 54.1413 64.108 54.275 64.0746 54.3919C63.4898 56.2132 59.7302 69.5304 59.5297 69.9314C57.8254 73.3233 53.197 74.4428 49.6881 74.9274C49.6546 74.9274 49.6212 74.9441 49.6045 74.9441C32.862 76.0636 28.6513 76.6651 27.9997 76.7821C27.9663 76.7988 26.83 78.4029 24.591 78.4029H19.3778C16.955 78.4029 15 76.4312 15 74.0251V59.0371C15 56.5808 16.955 54.6091 19.3778 54.6091ZM48.9194 52.7711C49.1032 56.1631 46.3128 59.8224 43.8065 62.0614C46.8475 62.1282 48.4683 62.1784 49.3706 61.5601C50.3063 60.9085 51.0582 59.271 52.562 55.9626C52.9631 55.077 53.4142 54.0912 53.8988 53.0552C52.2613 53.5732 50.4734 53.4729 48.9194 52.7711ZM29.4868 57.9677C28.902 58.7196 29.0022 58.4021 29.0022 58.9869V73.975C31.3582 73.6909 36.9892 73.1395 49.404 72.3041C51.0248 72.0701 52.7458 71.7193 54.2329 71.101C55.5363 70.5663 56.6223 69.8311 57.1737 68.8119L61.5515 53.7403C61.5515 53.2056 61.3677 52.7043 61.067 52.3033C59.9474 50.8162 57.6249 51.1169 56.9231 52.838L56.873 52.8881C56.0542 54.5924 55.4527 55.9292 54.9347 57.0654C53.2304 60.8082 52.3782 62.6629 50.841 63.7323C49.2536 64.8184 47.4491 64.785 43.8399 64.7014C42.6702 64.6847 41.2834 64.6513 39.6793 64.6513C38.2591 64.6513 37.858 62.6796 39.1948 62.1282C40.8322 61.4599 43.3052 59.3044 44.8926 56.8649C45.9954 55.1773 46.647 53.4061 46.129 52.1028C45.7948 51.2506 45.0095 50.6324 44.0905 50.5154C43.7396 50.4653 44.1406 50.7661 43.6728 51.1002C41.9685 52.2866 38.894 54.4421 35.0509 55.5616C30.2721 56.9317 30.0215 57.2659 29.4868 57.9677ZM25.5434 29.228C24.8249 29.228 24.2234 28.6432 24.2234 27.908C24.2234 27.1895 24.8082 26.588 25.5434 26.588H33.1962C33.9147 26.588 34.5162 27.1728 34.5162 27.908C34.5162 28.6265 33.9314 29.228 33.1962 29.228H25.5434ZM32.1769 10.5807C31.659 10.0627 31.659 9.24397 32.1769 8.72599C32.6949 8.20801 33.5137 8.20801 34.0317 8.72599L39.4454 14.1397C39.9634 14.6577 39.9634 15.4932 39.4454 15.9944C38.9274 16.5124 38.1087 16.5124 37.5907 15.9944L32.1769 10.5807ZM77.1912 26.6047C77.9097 26.6047 78.5112 27.1895 78.5112 27.9247C78.5112 28.6432 77.9264 29.2447 77.1912 29.2447H69.5385C68.82 29.2447 68.2184 28.6599 68.2184 27.9247C68.2184 27.2062 68.8033 26.6047 69.5385 26.6047H77.1912ZM68.703 8.72599C69.221 8.20801 70.0564 8.20801 70.5577 8.72599C71.0757 9.24397 71.0757 10.0794 70.5577 10.5807L65.144 15.9944C64.626 16.5124 63.7905 16.5124 63.2893 15.9944C62.7713 15.4765 62.7713 14.641 63.2893 14.1397L68.703 8.72599ZM50.0557 2.09248C50.0557 1.37399 50.6405 0.772461 51.3757 0.772461C52.1109 0.772461 52.6957 1.35728 52.6957 2.09248V9.74524C52.6957 10.4637 52.1109 11.0653 51.3757 11.0653C50.6405 11.0653 50.0557 10.4804 50.0557 9.74524V2.09248ZM54.9347 49.4627C55.5864 48.8111 56.0375 47.9589 56.1879 47.0065H47.4323C47.967 50.5655 52.3615 52.0359 54.9347 49.4627ZM45.8784 41.9102V44.3999H57.7084V41.9102H45.8784Z" fill="white"/>
<ellipse cx="51.445" cy="28.5725" rx="12.0546" ry="11.8831" fill="#F6B452"/>
<rect x="17.2981" y="57.3623" width="8.96162" height="18.3598" rx="3" fill="#310C37"/>
</svg>
