<svg width="37" height="38" viewBox="0 0 37 38" fill="none" xmlns="http://www.w3.org/2000/svg">
<path fill-rule="evenodd" clip-rule="evenodd" d="M5.82479 23.7528C6.32411 23.306 6.92345 22.6144 7.39319 22.6144H23.5582C24.8495 22.6144 25.9096 21.5543 25.9096 20.263V7.48619C25.9096 6.19801 24.8526 5.13477 23.5582 5.13477H5.02892C3.73762 5.13477 2.67749 6.1945 2.67749 7.48619V25.9084C2.67749 26.1641 2.9791 26.2992 3.1698 26.1287L5.82479 23.7528ZM27.485 8.09798H31.023C32.5502 8.09798 33.8026 9.35036 33.8026 10.8775V32.1419C33.8026 32.3976 33.5006 32.5323 33.3102 32.3622L28.9121 28.426C28.7681 28.2723 28.5634 28.1762 28.3365 28.1762H9.96722C9.20404 28.1762 8.50897 27.8633 8.00498 27.3589C7.14294 26.4969 7.1877 25.6843 7.1877 24.6393L7.68896 24.1906H23.5578C25.7193 24.1906 27.485 22.4249 27.485 20.2634V8.09798ZM10.0423 12.3696C9.00517 12.3696 9.00517 10.7938 10.0423 10.7938H18.5444C19.5819 10.7938 19.5819 12.3696 18.5444 12.3696H10.0423ZM10.0423 16.9557C9.00517 16.9557 9.00517 15.3799 10.0423 15.3799H18.5444C19.5819 15.3799 19.5819 16.9557 18.5444 16.9557H10.0423Z" fill="#4C2058"/>
</svg>
